# xmcd CD database file
#
# Track frame offsets:
#	150
#	12295
#	27195
#	41319
#	56281
#	67669
#	80195
#	96309
#	112025
#	125869
#	141845
#	152467
#	170501
#	185990
#	202881
#	214456
#	230684
#	245049
#	257315
#	268316
#	276719
#	290385
#	301050
#	316093
#	326618
#
# Disc length: 4544 seconds
#
# Revision: 0
# Processed by: cddbd v1.5.2PL0 Copyright (c) Steve Scherf et al.
# Submitted via: ACXtractor (MTCDDB.DLL V2003.07.15)
#
DISCID=7511be19
DTITLE=John McSweeney - Just for You
DYEAR=1999
DGENRE=Country
TTITLE0=Heartaches by the Number
TTITLE1=Walking on My Way
TTITLE2=Lets Turn back the Hands of Time
TTITLE3=A Heart thats Turned to Stone
TTITLE4=Tonight were Gonna Tear down the Walls
TTITLE5=Blueberry Hill
TTITLE6=Your cheating Heart
TTITLE7=Dark Side of Town
TTITLE8=Four in the Morning
TTITLE9=Seven Spanish Angels
TTITLE10=Hey good Lookin'
TTITLE11=Mountains of Mourne
TTITLE12=Bar Room Roses
TTITLE13=Whats a Memory Like You
TTITLE14=Green Door
TTITLE15=Send me No Roses
TTITLE16=Moving Mind
TTITLE17=Goin' down that Road
TTITLE18=Give me Forty Acres
TTITLE19=Blue Blue Day
TTITLE20=Fifteen Gears and 14 Wheels
TTITLE21=Big wheel Cannon
TTITLE22=Tombstone every Mile
TTITLE23=Bull shippers
TTITLE24=My Diesel Friend
EXTD=ID3G:   2 YEAR: 1999
EXTT0=
EXTT1=
EXTT2=
EXTT3=
EXTT4=
EXTT5=
EXTT6=
EXTT7=
EXTT8=
EXTT9=
EXTT10=
EXTT11=
EXTT12=
EXTT13=
EXTT14=
EXTT15=
EXTT16=
EXTT17=
EXTT18=
EXTT19=
EXTT20=
EXTT21=
EXTT22=
EXTT23=
EXTT24=
PLAYORDER=
